<svg xmlns="http://www.w3.org/2000/svg" version="1.1" xmlns:xlink="http://www.w3.org/1999/xlink" xmlns:svgjs="http://svgjs.dev/svgjs" width="2000" height="1500" viewBox="0 0 2000 1500"><rect width="2000" height="1500" fill="#ffffff"></rect><g transform="matrix(0.75,0,0,0.75,250.51326852363513,86.7884418574015)"><svg viewBox="0 0 279 247" data-background-color="#ffffff" preserveAspectRatio="xMidYMid meet" height="1770" width="2000" xmlns="http://www.w3.org/2000/svg" xmlns:xlink="http://www.w3.org/1999/xlink"><g id="tight-bounds" transform="matrix(1,0,0,1,-0.09518410838234104,-0.09997365579206985)"><svg viewBox="0 0 279.1906520537784 247.2" height="247.2" width="279.1906520537784"><g><svg viewBox="0 0 279.1906520537784 247.2" height="247.2" width="279.1906520537784"><g><svg viewBox="0 0 279.1906520537784 247.2" height="247.2" width="279.1906520537784"><g id="textblocktransform"><svg viewBox="0 0 279.1906520537784 247.2" height="247.2" width="279.1906520537784" id="textblock"><g><svg viewBox="0 0 279.1906520537784 247.2" height="247.2" width="279.1906520537784"><path d="M278.537 53.02C277.224 27.36 273.484 20.227 273.484 20.227 261.999-6.202 247.666-0.506 234.79 3.292 212.057 3.446 189.416 9.091 166.735 12.119 119.13 12.581 71.117 4.986 23.748 23.717 19.298 29.464-4.616 24.846 0.791 56.304 2.209 69.39 7.38 83.913 7.223 95.922 7.932 98.026 8.916 93.202 9.336 96.23 10.806 104.39 13.208 100.541 15.177 105.365 12.434 118.246 14.402 128.971 16.279 140.21 12.972 143.135 8.732 141.749 6.829 151.449 6.632 158.479 5.569 157.145 4.401 156.837 3.548 156.632 1.828 157.402 2.117 159.608 3.102 167.152-1.125 171.514 1.526 178.904-0.298 186.91 2.787 193.838 2.366 202.511 2.314 204.255 2.603 205.744 3.062 206.154 5.097 208.361 2.13 212.672 2.445 217.342 23.315 249.262 45.956 227.195 67.337 241.872 72.889 231.608 68.715 245.516 70.933 243.36 72.666 240.846 73.926 251.263 75.882 245.362 76.183 243.668 75.724 239.665 76.8 240.435 77.365 240.846 77.864 240.743 77.942 238.382 78.06 234.841 77.023 237.048 76.748 235.201 79.727 225.861 78.992 248.081 81.788 247.158 81.657 244.438 80.843 240.538 82.51 241.051 84.164 237.151 84.216 233.918 85.686 242.693 85.739 244.592 86.001 245.926 86.421 246.85 91.015 237.305 95.583 250.237 100.4 245.926 103.353 241.205 106.188 248.492 109.181 246.696 110.231 245.259 111.294 242.693 112.304 247.004 124.682 247.928 137.873 244.079 149.607 247.158 180.963 241.41 214.472 249.518 247.535 241.923 255.331 238.998 263.43 234.841 271.029 231.506 271.029 231.506 277.185 222.371 277.185 181.316S278.498 145.393 278.695 112.703C278.891 80.013 279.81 78.679 278.498 53.02Z" opacity="1" fill="#8eb4e5" data-fill-palette-color="tertiary"></path><g transform="matrix(1,0,0,1,55.76831999999999,26.230666666666668)"><svg width="167.65401205377844" viewBox="4.15 -35.4 30.950000000000003 35.949999999999996" height="194.73866666666666" data-palette-color="#ffffff"><path d="M22.7-34.65Q23.05-34.65 23.25-34.33 23.45-34 23.45-33.5L23.45-33.5Q23.45-32.8 23.13-32.05 22.8-31.3 22.3-31.1L22.3-31.1Q15.15-32.35 8.8-32.4L8.8-32.4 8.8-19.2 21.05-19.2Q21.2-18.6 21.2-18L21.2-18Q21.2-17.3 21.05-16.75L21.05-16.75 8.85-16.75 8.85-5.7Q8.85-2.05 9.5-0.35L9.5-0.35Q8.45 0.55 7.15 0.55L7.15 0.55Q6.15 0.55 5.5-0.05 4.85-0.65 4.85-1.65L4.85-1.65 4.8-28.45Q4.8-31.7 4.15-33.6L4.15-33.6Q4.85-34.2 5.58-34.43 6.3-34.65 7.6-34.65L7.6-34.65 22.7-34.65ZM32.25-30Q31.15-30 30.35-30.8 29.55-31.6 29.55-32.7L29.55-32.7Q29.55-33.85 30.35-34.63 31.15-35.4 32.25-35.4L32.25-35.4Q33.4-35.4 34.17-34.63 34.95-33.85 34.95-32.7L34.95-32.7Q34.95-31.6 34.17-30.8 33.4-30 32.25-30L32.25-30ZM34.45-5.7Q34.45-2.05 35.1-0.35L35.1-0.35Q34.05 0.55 32.8 0.55L32.8 0.55Q31.8 0.55 31.17-0.05 30.55-0.65 30.55-1.65L30.55-1.65 30.5-19.8Q30.5-23.25 29.85-25.15L29.85-25.15Q30.9-26.05 32.15-26.05L32.15-26.05Q33.15-26.05 33.77-25.48 34.4-24.9 34.4-23.85L34.4-23.85 34.45-5.7Z" opacity="1" transform="matrix(1,0,0,1,0,0)" fill="#ffffff" class="wordmark-text-0" data-fill-palette-color="quaternary" id="text-0"></path></svg></g></svg></g></svg></g></svg></g><g></g></svg></g><defs></defs></svg><rect width="279.1906520537784" height="247.2" fill="none" stroke="none" visibility="hidden"></rect></g></svg></g></svg>